<svg width="200" height="200" viewBox="0 0 200 200" fill="none" xmlns="http://www.w3.org/2000/svg">
<path d="M37.7522 88.3759C31.4329 113.201 36.9665 135.102 54.2107 153.477C54.6594 153.952 55.1172 154.426 55.5744 154.884C64.8378 164.142 76.3757 169.859 85.5176 173.837C89.4415 175.55 109.575 177.63 115.022 176.819C147.396 171.987 168.7 153.736 176.12 123.203C177.537 117.221 178.242 111.094 178.222 104.948C178.256 90.4687 172.158 73.6356 159.58 61.0285C158.284 59.9583 156.994 58.8496 155.746 57.7751C153.04 55.4498 150.243 53.0422 147.316 50.989C124.962 35.2621 101.734 35.1741 78.2833 43.5138C57.0511 51.0597 43.4152 66.1563 37.7522 88.3759Z" fill="#00CEB3"/>
<path d="M137.152 95.8467C136.613 95.7968 136.072 95.7443 135.533 95.6905C133.315 95.4732 131.022 95.2494 128.758 95.2198C119.721 95.1024 106.929 95.0105 94.5586 94.9226C84.9761 94.857 75.9265 94.7912 68.991 94.7157C68.4862 94.6971 67.983 94.6465 67.4847 94.5641L67.1467 94.5162L67.5825 94.0437C68.0734 93.5101 68.481 93.0677 68.9057 92.6424C74.8986 86.5389 79.9079 79.5423 83.7547 71.9022L83.8768 71.6684C84.2573 71.0065 84.5571 70.3014 84.77 69.5682C84.8415 69.1332 84.8119 68.6877 84.6834 68.2661C84.6453 68.0967 84.6073 67.9274 84.5843 67.7613L84.5377 67.416L84.1957 67.4817C83.9961 67.5166 83.7948 67.5412 83.5926 67.5553C83.0769 67.5437 82.5705 67.6927 82.1434 67.9818C81.6696 68.4286 81.244 68.924 80.874 69.4599C80.5874 69.8633 80.2745 70.2476 79.9374 70.6099C77.1777 73.4321 74.4119 76.2491 71.64 79.0609C68.0791 82.6786 64.5248 86.3033 60.9771 89.935C59.395 91.4564 57.9685 93.1319 56.7188 94.9364C54.9362 97.7042 55.2092 100.007 57.6252 102.635C59.9473 105.158 62.379 107.892 65.0595 110.993C67.011 113.249 68.9529 115.514 70.8852 117.788C72.9854 120.251 75.0939 122.708 77.2103 125.161C78.0186 126.146 78.9665 127.009 80.0241 127.72C80.4269 127.937 80.8795 128.045 81.3367 128.032C81.7731 128.061 82.2055 127.935 82.5582 127.676C82.8496 127.327 83.0459 126.909 83.128 126.461C83.2101 126.014 83.1752 125.553 83.0268 125.123C82.454 124.071 81.7738 123.081 80.9973 122.169C80.828 121.955 80.6581 121.741 80.492 121.527C78.0557 118.384 75.6172 115.245 73.1765 112.109C70.3324 108.452 67.4914 104.793 64.6539 101.133C64.4201 100.807 64.2142 100.463 64.0382 100.103L63.9017 99.8471C65.4691 99.9245 67.0119 100.003 68.5302 100.081C72.2858 100.273 75.8327 100.454 79.4294 100.592C87.0712 100.883 98.2348 101.168 109.03 101.441C118.323 101.678 127.101 101.901 133.548 102.123C134.811 102.155 136.074 102.065 137.32 101.856C139.224 101.554 140.189 100.574 140.188 98.9433C140.184 97.1298 139.106 96.0278 137.152 95.8467Z" fill="#111827"/>
<path d="M23.7197 77.1849C16.9253 103.889 22.875 127.447 41.4159 147.216C41.8983 147.727 42.3906 148.237 42.8822 148.73C52.8421 158.689 65.2475 164.838 75.0768 169.118C79.2958 170.96 100.944 173.197 106.8 172.325C141.608 167.128 164.514 147.495 172.492 114.651C174.015 108.217 174.774 101.626 174.752 95.0144C174.789 79.4395 168.231 61.3324 154.708 47.7712C153.316 46.62 151.927 45.4274 150.587 44.2722C147.676 41.7703 144.669 39.181 141.522 36.9717C117.487 20.0553 92.5131 19.9601 67.2985 28.931C44.4698 37.0453 29.8085 53.2837 23.7197 77.1849ZM67.3964 36.9245C89.5202 27.7305 111.718 26.108 133.368 39.878C137.327 42.3983 147.88 50.9281 149.542 52.2093L149.649 52.2882L149.737 52.3859C158.184 61.3429 167.855 77.7205 167.642 94.5562C167.571 101.755 166.597 108.917 164.741 115.873C159.242 135.862 146.094 150.43 124.546 160.394C102.64 170.882 71.2248 160.279 62.8663 154.761C53.6278 148.445 45.5442 140.587 38.969 131.531C28.6567 116.931 26.3424 95.9438 31.8838 76.7584C34.4772 67.9 39.0093 59.7296 45.1516 52.8399C51.2939 45.9501 58.8925 40.5136 67.3964 36.9245V36.9245Z" fill="#111827"/>
</svg>
