<svg width="200" height="200" viewBox="0 0 200 200" fill="none" xmlns="http://www.w3.org/2000/svg">
<path d="M37.7522 88.3759C31.4329 113.201 36.9665 135.102 54.2107 153.477C54.6594 153.952 55.1172 154.426 55.5744 154.884C64.8378 164.142 76.3757 169.859 85.5176 173.837C89.4415 175.55 109.575 177.63 115.022 176.819C147.396 171.987 168.7 153.736 176.12 123.203C177.537 117.221 178.242 111.094 178.222 104.948C178.256 90.4687 172.158 73.6356 159.58 61.0285C158.284 59.9583 156.994 58.8496 155.746 57.7751C153.04 55.4498 150.243 53.0422 147.316 50.989C124.962 35.2621 101.734 35.1741 78.2833 43.5138C57.0511 51.0597 43.4152 66.1563 37.7522 88.3759Z" fill="#00CEB3"/>
<path d="M23.7197 77.1851C16.9253 103.89 22.875 127.447 41.4159 147.216C41.8983 147.727 42.3906 148.238 42.8822 148.73C52.8421 158.689 65.2475 164.838 75.0768 169.118C79.2958 170.96 100.943 173.198 106.8 172.325C141.608 167.127 164.514 147.495 172.492 114.651C174.015 108.217 174.774 101.626 174.752 95.0146C174.789 79.4397 168.231 61.3326 154.708 47.7714C153.315 46.6202 151.927 45.4276 150.586 44.2718C147.676 41.7705 144.669 39.1805 141.522 36.9719C117.487 20.0548 92.5131 19.9603 67.2985 28.9312C44.4691 37.0448 29.8085 53.2839 23.7197 77.1851ZM67.3964 36.9247C89.5195 27.7307 111.718 26.1082 133.368 39.8782C137.327 42.3985 147.88 50.9283 149.542 52.2095L149.649 52.2882L149.737 52.3861C158.184 61.3431 167.855 77.7207 167.642 94.5564C167.572 101.755 166.597 108.917 164.741 115.873C159.242 135.862 146.094 150.43 124.546 160.394C102.64 170.883 71.2248 160.279 62.8663 154.761C53.6279 148.445 45.5442 140.587 38.9684 131.531C28.656 116.931 26.3424 95.944 31.8838 76.7586C34.4769 67.9 39.009 59.7295 45.1514 52.8397C51.2937 45.95 58.8924 40.5135 67.3964 36.9247V36.9247Z" fill="#111827"/>
<path d="M130.692 84.5199C128.742 82.2634 126.8 79.9983 124.867 77.7248C122.765 75.2622 120.656 72.8047 118.542 70.3522C117.734 69.3656 116.786 68.5021 115.729 67.7892C115.095 67.3921 113.728 67.3408 113.196 67.8324C112.905 68.1819 112.709 68.6007 112.627 69.0482C112.545 69.4957 112.58 69.9568 112.728 70.387C113.3 71.4356 113.978 72.4227 114.752 73.3326C114.924 73.5486 115.095 73.7644 115.263 73.981C117.683 77.1012 120.105 80.2198 122.53 83.3365C125.389 87.0146 128.246 90.694 131.101 94.3747C131.336 94.701 131.542 95.0464 131.718 95.4071C131.761 95.4885 131.806 95.5725 131.85 95.6605C130.282 95.583 128.741 95.5043 127.219 95.4262C123.465 95.2345 119.918 95.0533 116.324 94.9155C108.676 94.6234 97.5035 94.3394 86.6989 94.0624C77.4156 93.8274 68.6462 93.6029 62.2056 93.3817C60.9423 93.3487 59.679 93.4382 58.433 93.6488C56.5296 93.9514 55.5641 94.9307 55.5654 96.561C55.5654 98.3804 56.6438 99.4824 58.599 99.6635C59.1381 99.7134 59.6774 99.7653 60.2169 99.8191C62.4347 100.037 64.7286 100.261 66.9936 100.29C76.03 100.408 88.8214 100.5 101.189 100.588C110.771 100.653 119.822 100.719 126.756 100.794C127.261 100.813 127.764 100.864 128.263 100.946L128.602 100.994C128.45 101.157 128.308 101.313 128.172 101.461C127.678 101.997 127.268 102.441 126.842 102.868C120.849 108.971 115.84 115.968 111.993 123.608L111.871 123.842C111.491 124.504 111.191 125.209 110.977 125.942C110.906 126.377 110.936 126.823 111.065 127.244C111.103 127.413 111.14 127.583 111.163 127.749L111.21 128.094L111.552 128.029C111.752 127.994 111.953 127.969 112.156 127.955C112.671 127.967 113.178 127.817 113.605 127.528C114.078 127.081 114.504 126.586 114.874 126.05C115.161 125.647 115.474 125.262 115.811 124.9C118.546 122.102 121.288 119.31 124.037 116.523C127.621 112.879 131.199 109.23 134.77 105.575C136.353 104.054 137.779 102.379 139.029 100.574C140.811 97.8061 140.538 95.5037 138.123 92.875C135.817 90.3678 133.385 87.6335 130.692 84.5199Z" fill="#111827"/>
</svg>
