<svg width="200" height="200" viewBox="0 0 200 200" fill="none" xmlns="http://www.w3.org/2000/svg">
<g clip-path="url(#clip0_5992_6592)">
<path d="M104.768 141.514C89.1772 152.9 73.9307 164.018 58.7135 175.175C57.5962 175.995 56.7438 177.168 55.6667 178.054C53.1745 180.1 50.822 179.279 50.2563 176.088C50.0386 174.817 50.0994 173.513 50.4344 172.267C52.0216 166.559 53.537 160.816 55.4673 155.221C59.124 144.625 63.0449 134.12 66.8602 123.58C67.2576 122.482 67.692 121.398 68.0331 120.504C57.3355 110.716 47.208 100.726 37.3241 90.4879C35.9947 89.0857 34.8697 87.5021 33.9821 85.7843C32.8518 83.6266 33.6376 82.179 36.0158 81.8635C38.3648 81.5403 40.733 81.379 43.1039 81.3807C52.1567 81.4339 61.2084 81.6351 70.2611 81.6857C73.8085 81.7059 77.357 81.4748 81.0934 81.3522C82.8172 77.0394 84.5074 72.8597 86.1613 68.6657C90.513 57.6306 94.857 46.5918 99.193 35.5494C99.3432 35.1448 99.5187 34.75 99.718 34.3673C100.973 32.0701 103.326 31.8545 104.897 33.9889C105.556 34.9738 106.093 36.0362 106.494 37.1521C109.904 45.5478 113.152 54.0124 116.722 62.3381C118.8 67.1825 121.383 71.8106 123.795 76.655C124.827 76.655 125.672 76.6719 126.521 76.655C137.078 76.4129 147.633 76.1078 158.191 75.9449C163.245 75.867 168.303 76.0904 173.359 76.1053C175.011 76.1105 176.383 76.5246 177.114 78.0831C177.471 78.8258 177.571 79.667 177.397 80.4729C177.222 81.2789 176.786 82.0034 176.154 82.5316C172.83 85.7648 169.512 89.0117 166.045 92.0866C156.843 100.249 147.561 108.32 138.318 116.436C137.443 117.205 136.624 118.038 135.808 118.813C135.899 119.313 136.03 119.806 136.197 120.286C143.232 135.442 147.595 151.431 150.921 167.742C151.489 170.043 151.931 172.375 152.243 174.724C152.583 178.481 151.321 179.008 147.719 179.588C142.677 180.405 139.612 177.742 136.408 174.804C128.058 167.144 119.703 159.484 112.406 150.763C109.918 147.789 107.469 144.786 104.768 141.514Z" fill="#FBB130"/>
</g>
<g clip-path="url(#clip1_5992_6592)">
<path d="M93.7684 130.514C78.1772 141.9 62.9307 153.018 47.7135 164.175C46.5962 164.995 45.7438 166.168 44.6667 167.054C42.1745 169.1 39.822 168.279 39.2563 165.088C39.0386 163.817 39.0994 162.513 39.4344 161.267C41.0216 155.559 42.537 149.816 44.4673 144.221C48.124 133.625 52.0449 123.12 55.8602 112.58C56.2576 111.482 56.692 110.398 57.0331 109.504C46.3355 99.7163 36.208 89.7256 26.3241 79.4879C24.9947 78.0857 23.8697 76.5021 22.9821 74.7843C21.8518 72.6266 22.6376 71.179 25.0158 70.8635C27.3648 70.5403 29.733 70.379 32.1039 70.3807C41.1567 70.4339 50.2084 70.6351 59.2611 70.6858C62.8085 70.7059 66.357 70.4749 70.0934 70.3522C71.8172 66.0394 73.5074 61.8597 75.1613 57.6657C79.513 46.6306 83.857 35.5918 88.193 24.5494C88.3432 24.1448 88.5187 23.75 88.718 23.3673C89.9732 21.0701 92.3262 20.8545 93.8966 22.9889C94.5562 23.9738 95.0928 25.0362 95.4942 26.1521C98.9043 34.5478 102.152 43.0124 105.722 51.3381C107.8 56.1825 110.383 60.8106 112.795 65.655C113.827 65.655 114.672 65.6719 115.521 65.655C126.078 65.4129 136.633 65.1078 147.191 64.9449C152.245 64.867 157.303 65.0904 162.359 65.1053C164.011 65.1105 165.383 65.5246 166.114 67.0831C166.471 67.8258 166.571 68.667 166.397 69.4729C166.222 70.2789 165.786 71.0034 165.154 71.5316C161.83 74.7648 158.512 78.0118 155.045 81.0866C145.843 89.2485 136.561 97.3197 127.318 105.436C126.443 106.205 125.624 107.038 124.808 107.813C124.899 108.313 125.03 108.806 125.197 109.286C132.232 124.442 136.595 140.431 139.921 156.742C140.489 159.044 140.931 161.375 141.243 163.724C141.583 167.481 140.321 168.008 136.719 168.588C131.677 169.405 128.612 166.742 125.408 163.804C117.058 156.144 108.703 148.484 101.406 139.763C98.9179 136.789 96.4691 133.786 93.7684 130.514ZM50.5275 153.464L50.9883 153.891C51.5949 153.462 52.2184 153.056 52.8055 152.6C65.234 142.934 77.6642 133.268 90.0962 123.602C93.1839 121.208 94.9006 121.235 97.8271 123.788C99.7892 125.479 101.639 127.297 103.364 129.23C111.383 138.322 120.414 146.363 129.309 154.546C129.67 154.878 130.092 155.142 130.802 155.676C130.694 154.87 130.682 154.456 130.58 154.064C126.934 139.974 123.236 125.896 117.992 112.293C116.598 108.675 116.968 105.856 120.083 103.075C130.385 93.8787 140.473 84.4388 150.636 75.0908C151.472 74.3229 152.301 73.549 153.618 72.3293C151.79 72.3293 150.72 72.317 149.65 72.3293C138.009 72.4884 126.362 72.4851 114.73 72.8902C109.719 73.0648 106.574 70.9427 104.407 66.7455C104.357 66.6494 104.312 66.5508 104.27 66.4522C102.198 61.5941 99.9976 56.7873 98.0984 51.8631C96.1195 46.735 94.4429 41.4857 92.6071 36.2986C92.2582 35.3126 91.7844 34.3712 91.1319 32.862C89.766 36.2667 88.4941 39.0794 87.4972 41.9874C84.3493 51.1738 81.2287 60.3711 78.2465 69.6127C76.3233 75.5723 71.9629 78.1 66.2587 77.706C57.7684 77.1218 49.26 76.7823 40.7575 76.3941C38.4271 76.2877 36.0916 76.378 33.3482 76.378C36.2612 79.0147 38.9798 81.4314 41.6448 83.902C48.7654 90.4955 55.8977 97.0789 62.9418 103.753C64.0713 104.907 64.9979 106.245 65.6825 107.708C66.6425 109.611 66.3188 111.142 64.5173 112.174C63.1993 112.93 62.8019 113.992 62.3993 115.21C60.2334 121.766 57.9834 128.291 55.934 134.879C54.0218 141.043 52.3212 147.268 50.5268 153.464H50.5275Z" fill="#111827"/>
</g>
<defs>
<clipPath id="clip0_5992_6592">
<rect width="145" height="148" fill="white" transform="translate(33 32)"/>
</clipPath>
<clipPath id="clip1_5992_6592">
<rect width="145" height="148" fill="white" transform="translate(22 21)"/>
</clipPath>
</defs>
</svg>
