<svg width="200" height="200" viewBox="0 0 200 200" fill="none" xmlns="http://www.w3.org/2000/svg">
<g clip-path="url(#clip0_7546_3856)">
<path d="M56.1718 124.069C56.6176 124.463 57.0634 124.856 57.4996 125.262C61.0456 128.58 65.0393 132.7 67.7689 138.101C70.5978 143.701 74.1192 150.67 77.7371 157.217C80.8093 162.776 84.4978 168.447 90.637 172.271C98.6435 177.258 106.903 179.756 115.328 179.756C120.648 179.725 125.922 178.78 130.921 176.96C134.523 175.616 137.904 173.741 140.952 171.398C148.62 165.627 153.492 157.147 155.844 145.478C157.229 138.326 158.255 131.108 158.916 123.853C159.548 118.053 158.968 112.185 157.213 106.621C155.621 101.67 152.259 98.7166 147.228 97.8422C143.522 97.1997 140.515 98.8918 138.263 100.549C137.498 98.7217 136.323 97.0952 134.828 95.7954C133.332 94.4956 131.557 93.5575 129.641 93.0551C125.51 91.8693 121.85 92.8328 118.766 95.9209C114.387 89.7396 110.751 88.9792 103.631 92.7921C103.503 91.1127 103.382 89.4537 103.263 87.81C102.965 83.6705 102.684 79.7634 102.273 75.7977C101.686 70.1297 101.116 65.0222 100.088 59.9745C99.4215 57.1911 98.2687 54.5474 96.6828 52.1648C95.2301 49.8263 93.3221 48.4233 91.1638 48.1068C88.9049 47.7762 86.5311 48.643 84.3002 50.6147C82.1827 52.4858 80.999 55.0956 80.7786 58.3715C80.6971 59.5935 80.6133 60.816 80.527 62.0392C80.1054 68.0994 79.6687 74.3661 79.6604 80.5352C79.6502 87.8157 79.8907 95.2413 80.1231 102.423C80.2161 105.317 80.3106 108.218 80.3896 111.131C74.998 106.511 68.43 104.375 60.8381 104.781C57.9143 104.937 53.7991 105.663 51.8153 110.14C49.9869 114.269 50.532 118.07 53.436 121.438C54.2866 122.377 55.2006 123.256 56.1718 124.069Z" fill="#1BB6F9"/>
<path d="M62.5976 78.9668C65.2783 81.4794 68.5984 83.2065 72.1946 83.9591C72.655 84.0611 73.1241 84.1174 73.5955 84.1273C74.1007 84.1753 74.608 84.0568 75.0396 83.7898C75.4712 83.5228 75.8038 83.122 75.9865 82.6485C76.687 80.8462 75.152 79.9737 74.033 79.3337L73.9394 79.2802C73.3204 78.9261 72.6861 78.5962 72.0525 78.2663C71.3468 77.8988 70.6171 77.5193 69.9242 77.1117C63.3812 73.2594 60.474 66.9928 61.7388 59.4658C64.1378 45.1876 76.6908 34.8617 90.9142 35.4247C95.9129 35.626 100.306 37.5525 103.284 40.8494C104.748 42.5299 105.859 44.4873 106.552 46.6054C107.245 48.7235 107.506 50.9593 107.319 53.1802C107.247 53.9951 107.117 54.8039 106.929 55.6001C106.831 56.0657 106.733 56.5319 106.656 57.0013C106.246 59.5047 107.094 61.2681 108.867 61.5942C109.26 61.6732 109.665 61.6702 110.056 61.5853C110.448 61.5003 110.817 61.3353 111.142 61.1006C111.62 60.7107 112.015 60.2289 112.304 59.6837C112.592 59.1385 112.769 58.5411 112.822 57.9265C112.943 56.9469 113.007 55.9612 113.013 54.9741C113.026 54.5366 113.038 54.0991 113.059 53.6635C113.37 47.9372 111.403 42.3204 107.587 38.039C105.497 35.6947 102.961 33.7899 100.126 32.4354C97.2924 31.0808 94.217 30.3036 91.0797 30.149C74.419 29.1097 58.9583 41.0271 55.8619 57.2903C54.1571 66.2368 56.3603 73.3275 62.5976 78.9668Z" fill="#1BB6F9"/>
</g>
<g clip-path="url(#clip1_7546_3856)">
<path d="M46.4687 114.366C46.9145 114.76 47.3603 115.153 47.7965 115.559C51.3425 118.877 55.3362 122.997 58.0657 128.398C60.8946 133.998 64.416 140.967 68.034 147.513C71.1062 153.073 74.7947 158.744 80.9339 162.568C88.9404 167.554 97.2004 170.053 105.625 170.053C110.945 170.022 116.219 169.077 121.218 167.257C124.82 165.913 128.2 164.038 131.249 161.695C138.917 155.924 143.789 147.444 146.141 135.775C147.526 128.622 148.552 121.405 149.213 114.149C149.845 108.35 149.265 102.482 147.51 96.9181C145.918 91.9666 142.556 89.0135 137.525 88.1391C133.819 87.4965 130.812 89.1887 128.56 90.8464C127.795 89.0186 126.62 87.3921 125.124 86.0923C123.629 84.7925 121.854 83.8544 119.938 83.352C115.807 82.1662 112.147 83.1297 109.062 86.2177C104.683 80.0365 101.048 79.2761 93.9275 83.089C93.8002 81.4096 93.6787 79.7506 93.5603 78.1069C93.2622 73.9673 92.9812 70.0602 92.5698 66.0946C91.9827 60.4266 91.4126 55.319 90.3854 50.2714C89.7184 47.488 88.5656 44.8442 86.9797 42.4617C85.527 40.1231 83.619 38.7202 81.4607 38.4036C79.2018 38.0731 76.828 38.9399 74.5971 40.9116C72.4796 42.7826 71.2959 45.3924 71.0755 48.6684C70.994 49.8903 70.9101 51.1128 70.8239 52.336C70.4023 58.3963 69.9656 64.6629 69.9573 70.8321C69.9471 78.1126 70.1876 85.5382 70.42 92.72C70.513 95.6138 70.6075 98.5153 70.6865 101.428C65.2949 96.8079 58.7269 94.6719 51.135 95.0776C48.2112 95.2343 44.0959 95.9597 42.1121 100.437C40.2837 104.566 40.8288 108.367 43.7329 111.735C44.5834 112.674 45.4975 113.553 46.4687 114.366ZM67.5237 106.928C68.5041 108.561 69.2492 110.324 69.7368 112.164C70.2074 113.656 70.8877 115.255 73.0218 115.334C74.761 115.398 75.9237 114.435 76.5587 112.389C76.761 111.734 76.8634 111.053 76.8625 110.368L76.8479 106.117C76.8313 100.759 76.8146 95.2177 76.7076 89.7688C76.6529 86.9559 76.5404 84.097 76.4328 81.3332C76.2729 77.2573 76.1072 73.0426 76.1224 68.9012C76.146 62.5002 76.5301 56.0043 76.9549 49.3575C77.1224 46.7464 77.7228 44.2499 80.9261 43.6398C83.8939 46.1401 84.8539 49.6033 85.3754 54.0237C85.7334 57.0538 85.8849 60.1649 86.0384 63.1733C86.1129 64.6731 86.1878 66.1729 86.2865 67.6708C86.8673 76.4593 87.4585 85.2478 88.0596 94.0364C88.1749 95.7399 89.0855 96.8334 90.6254 97.1155C91.3441 97.2894 92.1017 97.1913 92.7524 96.8404C93.403 96.4889 93.9007 95.9093 94.1492 95.2126C94.3142 94.8356 94.4491 94.4446 94.579 94.0663C94.744 93.5352 94.9545 93.0193 95.2077 92.5238C95.3841 92.2054 95.5572 91.8781 95.7311 91.5533C96.4156 90.1579 97.2411 88.8365 98.1946 87.6093C99.2581 86.3432 100.473 85.7624 101.616 85.9649C102.775 86.1732 103.767 87.2106 104.338 88.8116C104.734 90.0178 104.961 91.2737 105.013 92.5423C105.062 93.6772 105.04 94.8146 104.949 95.9469L104.903 96.7443C104.809 98.5192 105.627 99.6101 107.27 99.903C108.36 100.097 109.817 99.8699 110.543 97.6893C110.632 97.4059 110.704 97.1181 110.758 96.8264C110.809 96.5863 110.858 96.3462 110.93 96.1125C111.054 95.71 111.169 95.3024 111.283 94.8948C111.547 93.8498 111.895 92.827 112.323 91.838L112.436 91.594C113.339 89.6516 114.283 87.6405 116.803 87.9054C118.953 88.127 121.731 89.0517 122.75 92.1831C123.088 93.381 123.302 94.6102 123.387 95.852C123.435 96.3112 123.483 96.7697 123.543 97.2244C123.599 97.6479 123.62 98.0944 123.642 98.5255C123.65 99.2993 123.75 100.069 123.942 100.818C124.069 101.375 124.346 101.887 124.744 102.298C125.142 102.708 125.645 103.002 126.198 103.146C126.774 103.24 127.365 103.175 127.906 102.957C128.448 102.74 128.919 102.377 129.27 101.91C129.612 101.484 129.908 101.024 130.155 100.536C130.316 100.244 130.482 99.9412 130.664 99.6687C130.887 99.3356 131.104 98.9968 131.321 98.6574C131.889 97.7097 132.537 96.813 133.258 95.9762C134.5 94.6223 136.007 93.9765 137.383 94.2051C138.067 94.3567 138.703 94.6789 139.229 95.1426C139.755 95.6068 140.155 96.1966 140.391 96.857C141.454 99.2687 142.879 102.88 142.977 106.372C143.019 111.451 142.775 116.529 142.246 121.58L142.048 123.902C141.863 125.723 141.584 127.533 141.212 129.325C141.011 130.381 140.804 131.474 140.639 132.556C139.775 138.224 137.404 143.235 134.11 149.009C132.216 152.327 129.116 155.126 124.895 157.329C111.979 164.068 98.7683 163.723 85.632 156.304C79.9232 153.08 76.7083 147.973 74.3163 143.403C72.5905 140.106 70.8954 136.721 69.2555 133.449C67.685 130.313 66.0604 127.071 64.4109 123.908C61.4585 118.258 57.4605 113.221 52.6292 109.063L52.0132 108.534C50.8819 107.625 49.8339 106.617 48.8818 105.521C48.087 104.543 47.7777 103.611 47.9872 102.816C48.2069 101.988 48.992 101.288 50.2593 100.792C51.3664 100.364 52.5441 100.148 53.7309 100.155C55.1907 100.188 56.6384 100.427 58.0322 100.861C62.6525 102.185 65.5819 104.057 67.5237 106.93V106.928Z" fill="#111827"/>
<path d="M52.8945 69.2637C55.5751 71.7763 58.8953 73.5034 62.4915 74.256C62.9519 74.358 63.421 74.4143 63.8924 74.4241C64.3976 74.4722 64.9048 74.3537 65.3365 74.0867C65.7681 73.8197 66.1007 73.4189 66.2834 72.9454C66.9839 71.1431 65.4488 70.2706 64.3299 69.6305L64.2363 69.577C63.6172 69.223 62.983 68.8931 62.3493 68.5632C61.6437 68.1957 60.914 67.8162 60.2211 67.4086C53.6781 63.5563 50.7709 57.2896 52.0357 49.7627C54.4347 35.4845 66.9877 25.1586 81.2111 25.7216C86.2097 25.9228 90.6027 27.8493 93.5806 31.1463C95.0444 32.8268 96.156 34.7841 96.8491 36.9023C97.5423 39.0204 97.8028 41.2562 97.6156 43.477C97.5442 44.292 97.4141 45.1008 97.226 45.897C97.1279 46.3625 97.0297 46.8288 96.9533 47.2981C96.5432 49.8016 97.3909 51.565 99.1639 51.8911C99.5566 51.9701 99.9615 51.9671 100.353 51.8821C100.745 51.7972 101.114 51.6322 101.439 51.3975C101.917 51.0075 102.312 50.5258 102.6 49.9806C102.889 49.4354 103.065 48.838 103.119 48.2234C103.24 47.2438 103.303 46.258 103.31 45.271C103.322 44.8335 103.335 44.3959 103.356 43.9603C103.667 38.234 101.7 32.6173 97.8843 28.3358C95.7935 25.9916 93.2575 24.0868 90.4233 22.7322C87.5893 21.3777 84.5139 20.6005 81.3765 20.4459C64.7159 19.4066 49.2552 31.3239 46.1588 47.5872C44.4539 56.5337 46.6572 63.6244 52.8945 69.2637Z" fill="#111827"/>
</g>
<defs>
<clipPath id="clip0_7546_3856">
<rect width="108.902" height="150.297" fill="white" transform="translate(50.7031 29.7031)"/>
</clipPath>
<clipPath id="clip1_7546_3856">
<rect width="108.902" height="150.297" fill="white" transform="translate(41 20)"/>
</clipPath>
</defs>
</svg>
